<?xml version="1.0" encoding="UTF-8"?>
<svg version="1.1" xmlns="http://www.w3.org/2000/svg" width="2000" height="2000">
<path d="M0 0 C0.95695564 -0.00266971 1.91391129 -0.00533942 2.89986559 -0.00809003 C3.95627464 -0.00593556 5.01268368 -0.00378109 6.10110513 -0.00156133 C7.22564317 -0.00321211 8.35018121 -0.00486289 9.50879616 -0.00656369 C13.32380076 -0.01092008 17.13876735 -0.00807758 20.953773 -0.00533859 C23.70961057 -0.0064315 26.46544626 -0.00903116 29.22128284 -0.0115587 C35.25618399 -0.01628364 41.29107693 -0.01725399 47.32597962 -0.01583035 C56.36060265 -0.01371474 65.39521716 -0.01731473 74.42983889 -0.02204513 C89.82497992 -0.02993094 105.22011863 -0.0330078 120.61526153 -0.03349106 C136.22518 -0.03399288 151.83509588 -0.03663395 167.4450135 -0.04189865 C168.42955821 -0.04222879 169.41410291 -0.04255892 170.42848231 -0.04289906 C174.43814614 -0.044249 178.44780997 -0.04561167 182.4574738 -0.04699116 C229.97108353 -0.06330888 277.48469277 -0.06968171 324.99830483 -0.07443903 C348.65109176 -0.07682072 372.30387839 -0.08052389 395.9566651 -0.08447613 C471.79839172 -0.09714194 547.64011832 -0.10792572 623.48184599 -0.11131659 C627.10802549 -0.11147883 630.73420499 -0.11164439 634.36038449 -0.11181097 C641.63295045 -0.11214478 648.90551642 -0.11247526 656.17808238 -0.11280553 C664.69279698 -0.11319243 673.20751158 -0.11358204 681.72222617 -0.11397659 C684.15922261 -0.11408901 686.59621904 -0.11420043 689.03321548 -0.11431085 C767.30992208 -0.11786069 845.5866195 -0.13294001 923.8633226 -0.15624859 C980.09705078 -0.17298662 1036.33077723 -0.1884638 1092.56450794 -0.19298355 C1094.29866544 -0.19312378 1094.29866544 -0.19312378 1096.06785643 -0.19326684 C1121.44549888 -0.19528575 1146.8231413 -0.19644191 1172.20078383 -0.19679543 C1181.28115664 -0.19693161 1190.36152945 -0.1971406 1199.44190226 -0.19738868 C1201.70094689 -0.19745024 1203.95999153 -0.19750856 1206.21903617 -0.19756363 C1242.23873633 -0.19848403 1278.25842692 -0.20845925 1314.27812393 -0.22302112 C1350.55291839 -0.23762744 1386.82770111 -0.24268497 1423.10249799 -0.23460158 C1428.11277653 -0.23348616 1433.12305508 -0.23247551 1438.13333366 -0.23152725 C1439.11550753 -0.23133729 1440.09768141 -0.23114732 1441.10961813 -0.23095159 C1456.6752051 -0.2282156 1472.24077038 -0.23556743 1487.80635263 -0.24710062 C1503.10419936 -0.25822633 1518.40201536 -0.25868781 1533.69986255 -0.24773044 C1542.67352731 -0.24162444 1551.64709944 -0.24375412 1560.6207555 -0.25798241 C1566.57839918 -0.26661095 1572.53597461 -0.26438355 1578.49361405 -0.2532837 C1581.87227827 -0.24729398 1585.25061255 -0.24761304 1588.62928814 -0.25796856 C1592.26359624 -0.26837837 1595.89741855 -0.26030808 1599.53170911 -0.24765699 C1601.08404766 -0.25876973 1601.08404766 -0.25876973 1602.66774659 -0.27010698 C1617.68424092 -0.16022591 1631.9482579 4.70163688 1642.97731063 15.04461963 C1643.48698241 15.52121415 1643.99665419 15.99780867 1644.52177057 16.48884544 C1650.74532619 22.34571208 1656.78945752 28.38649821 1662.83116195 34.42960174 C1664.14602697 35.74115866 1665.46110145 37.05250562 1666.77636478 38.36366309 C1670.3580569 41.93543709 1673.93668673 45.510265 1677.51475737 49.08566637 C1681.38613589 52.95311199 1685.26033226 56.8177333 1689.13409469 60.68279083 C1698.46441285 69.99344269 1707.78997078 79.30885524 1717.11491773 88.62488608 C1721.51129301 93.01686794 1725.90815305 97.40836445 1730.30494735 101.79992683 C1744.92327172 116.40125941 1759.54034909 131.00383862 1774.15380904 145.61003979 C1777.93687553 149.3911966 1781.71994653 153.17234888 1785.50303695 156.95348175 C1786.20795814 157.65804272 1786.20795814 157.65804272 1786.92712017 158.37683724 C1802.18736177 173.62917388 1817.45536526 188.87370994 1832.72787384 204.11376269 C1848.89575353 220.24734659 1865.05633259 236.38821422 1881.20872161 252.53730811 C1890.00657739 261.33299806 1898.80770224 270.12536181 1907.61723373 278.90935905 C1915.11114767 286.38160062 1922.59824066 293.86059209 1930.07645503 301.34854714 C1933.89164447 305.16828935 1937.71001298 308.98470579 1941.53714988 312.79248054 C1945.04035629 316.27811564 1948.53420555 319.77285346 1952.02083752 323.27506547 C1953.2835331 324.54014607 1954.54961913 325.80185357 1955.81941149 327.05981079 C1957.54605032 328.77134872 1959.25986528 330.49480678 1960.9711003 332.22172649 C1961.71305922 332.9483521 1961.71305922 332.9483521 1962.47000721 333.68965702 C1969.83247438 341.20000122 1971.68549994 349.29885508 1971.69517562 359.5067044 C1971.53223464 368.61693729 1968.85626334 375.58962063 1962.57969711 382.30187042 C1956.10327713 387.67396301 1948.09242477 391.25000422 1939.65564565 391.25217834 C1938.70066846 391.25484805 1937.74569127 391.25751776 1936.76177538 391.26026837 C1935.71272625 391.2581139 1934.66367712 391.25595943 1933.58283863 391.25373967 C1932.46213195 391.25539045 1931.34142528 391.25704123 1930.1867578 391.25874203 C1926.39084081 391.26309289 1922.59496214 391.26025763 1918.79904411 391.25751694 C1916.05458427 391.25861024 1913.31012632 391.26120993 1910.56566748 391.26373704 C1904.55882118 391.26845936 1898.55198311 391.26943301 1892.54513525 391.26800869 C1883.55249733 391.26589207 1874.55986797 391.26949452 1865.56723137 391.27422347 C1850.24316546 391.28210721 1834.91910187 391.28518603 1819.5950341 391.2856694 C1804.05809904 391.2861713 1788.5211666 391.28881316 1772.9842324 391.29407699 C1771.51407812 391.29457219 1771.51407812 391.29457219 1770.01422375 391.2950774 C1766.02261863 391.29642735 1762.03101351 391.29779002 1758.0394084 391.2991695 C1710.74508543 391.31548529 1663.45076295 391.32185983 1616.15643764 391.32661737 C1592.6116695 391.32899928 1569.06690164 391.33270249 1545.52213372 391.33665447 C1470.02214743 391.34932017 1394.52216116 391.36010391 1319.02217382 391.36349493 C1315.41249748 391.36365717 1311.80282114 391.36382273 1308.1931448 391.36398931 C1300.95370884 391.36432312 1293.71427288 391.3646536 1286.47483692 391.36498387 C1277.9989583 391.36537078 1269.52307968 391.36576038 1261.04720107 391.36615494 C1258.6213223 391.36626736 1256.19544353 391.36637877 1253.76956476 391.36648919 C1175.85296042 391.37003889 1097.93636529 391.38511771 1020.01976447 391.40842693 C964.04313418 391.4251659 908.06650563 391.44064254 852.08987281 391.44516189 C850.93895353 391.44525538 849.78803426 391.44534887 848.60223864 391.44544518 C823.33791272 391.44746413 798.07358683 391.44862026 772.80926084 391.44897377 C763.76933105 391.44910995 754.72940126 391.44931894 745.68947148 391.44956702 C743.44050209 391.44962858 741.19153269 391.4496869 738.9425633 391.44974197 C703.08947513 391.45066221 667.23639657 391.46063561 631.38331156 391.47519946 C595.27419659 391.48980861 559.16509342 391.49486154 523.05597601 391.48677992 C518.06756233 391.48566452 513.07914864 391.48465386 508.09073493 391.4837056 C506.62391629 391.48342064 506.62391629 391.48342064 505.12746495 391.48312994 C489.6357167 391.48039493 474.14399026 391.48774262 458.65224676 391.49927896 C443.42354453 391.51041011 428.19487317 391.51086067 412.96617047 391.49990878 C404.03535635 391.49380725 395.10463532 391.49592063 386.17382995 391.51016075 C380.24202498 391.51879945 374.3102885 391.5165497 368.37848777 391.50546204 C365.01615835 391.49948152 361.65415986 391.4997728 358.29181926 391.5101469 C330.56703796 391.59007747 310.31549367 387.28211626 290.09958142 367.37448836 C288.29619808 365.57697387 286.5026287 363.77000242 284.7091069 361.96265228 C283.38306772 360.64123161 282.05615947 359.3206826 280.72846786 358.00092222 C277.11193394 354.40097345 273.50784377 350.78879452 269.90582285 347.17433234 C266.00784364 343.26726074 262.09831985 339.37176911 258.19030807 335.47473724 C250.5487853 327.85095816 242.91806358 320.21645691 235.2912185 312.57799711 C229.09183685 306.36956705 222.88854393 300.1650703 216.68246314 293.96333702 C215.79784125 293.07932806 214.91321936 292.1953191 214.00179075 291.28452199 C212.204494 289.48850419 210.40718829 287.69249534 208.60987374 285.89649535 C192.25567211 269.55336236 175.91275515 253.19898587 159.57458232 236.83983355 C144.67209714 221.91835803 129.75929254 207.00727026 114.83775375 192.10484894 C98.05298726 175.34151554 81.27475498 158.57168098 64.50684062 141.79148676 C62.71849652 140.0018685 60.93014409 138.21225858 59.14178321 136.42265709 C58.26194704 135.54220381 57.38211087 134.66175054 56.47561299 133.75461686 C50.28082934 127.55638232 44.0814221 121.36279563 37.88020561 115.17099769 C30.32348223 107.62550003 22.77394248 100.07290189 15.23348187 92.51115098 C11.38760986 88.65477791 7.53863 84.80165126 3.68088577 80.95715149 C0.14736065 77.43557453 -3.37674339 73.90484311 -6.8936669 70.36668862 C-8.16513252 69.09076741 -9.43995335 67.81817874 -10.71850272 66.54935595 C-21.52921642 55.81457728 -28.95902822 47.11905781 -29.07484391 31.24596222 C-28.8887997 21.96504031 -25.49903847 14.95573398 -19.24452164 8.12608917 C-13.88465562 3.24265569 -7.29323441 0.00187071 0 0 Z " fill="#718BD2" transform="translate(28.619521643966436,800.8739108294249)"/>
<path d="M0 0 C2.75562556 -0.00146382 5.51123731 -0.00745289 8.26685679 -0.0132131 C14.26708684 -0.02336162 20.26723504 -0.02242054 26.26746681 -0.01416247 C35.24996677 -0.00185585 44.23240067 -0.00692322 53.21490217 -0.01531039 C68.52543992 -0.02909835 83.83594775 -0.02866624 99.14648819 -0.02046776 C114.65987377 -0.01221127 130.17323967 -0.01047516 145.68662643 -0.01667976 C147.15689907 -0.01726104 147.15689907 -0.01726104 148.65687418 -0.01785406 C152.64905443 -0.01945389 156.64123465 -0.02110001 160.63341485 -0.02280489 C197.80966156 -0.03866997 234.98589508 -0.03975034 272.16214371 -0.03136253 C273.81426715 -0.03098995 273.81426715 -0.03098995 275.49976682 -0.03060985 C276.60294234 -0.03036106 277.70611787 -0.03011227 278.84272296 -0.02985594 C312.44184848 -0.02228858 346.04096856 -0.02033121 379.64009476 -0.02392387 C381.88942003 -0.02415631 384.1387453 -0.02438778 386.38807057 -0.02461828 C395.42697103 -0.02554967 404.46587148 -0.02650567 413.50477193 -0.02749758 C438.77236408 -0.03024866 464.03995624 -0.03196042 489.30754852 -0.03285599 C490.45819192 -0.03289692 491.60883531 -0.03293786 492.79434668 -0.03298004 C529.46148057 -0.03420796 566.12861256 -0.0308267 602.79574585 -0.02430725 C603.9851066 -0.0240965 605.17446735 -0.02388576 606.39986933 -0.02366862 C625.7147666 -0.02023371 645.02966382 -0.01657535 664.34456105 -0.0128981 C740.96153305 0.00167302 817.57848933 0.0009931 894.19546127 -0.01358986 C913.50533802 -0.01725335 932.81521476 -0.02088647 952.12509155 -0.02430725 C953.31403079 -0.0245186 954.50297002 -0.02472994 955.72793772 -0.02494769 C992.36018779 -0.03141482 1028.99243656 -0.03415934 1065.62468719 -0.03285599 C1067.34930663 -0.03279486 1067.34930663 -0.03279486 1069.10876686 -0.03273249 C1094.34575034 -0.03179512 1119.58273368 -0.02989433 1144.81971703 -0.02712448 C1153.84931179 -0.02613703 1162.87890656 -0.02519779 1171.90850132 -0.02427235 C1174.15487354 -0.02404018 1176.40124576 -0.02380399 1178.64761798 -0.02356376 C1212.24157231 -0.01998106 1245.83552049 -0.023036 1279.42947405 -0.03060985 C1280.53122086 -0.03085823 1281.63296766 -0.03110662 1282.76810074 -0.03136253 C1283.86781931 -0.03161058 1284.96753789 -0.03185863 1286.10058127 -0.03211419 C1323.1643025 -0.04038269 1360.22800789 -0.03735751 1397.29172686 -0.0215203 C1401.26916488 -0.01986319 1405.24660293 -0.01825309 1409.22404099 -0.01667976 C1410.68826383 -0.01609383 1410.68826383 -0.01609383 1412.18206694 -0.01549607 C1427.65738746 -0.00957196 1443.13268834 -0.01370597 1458.60800709 -0.02198678 C1473.81354683 -0.02991004 1489.01905333 -0.02715999 1504.22458884 -0.01294452 C1513.14600343 -0.00492274 1522.06732699 -0.00513333 1530.98873729 -0.01738931 C1536.90913467 -0.02470545 1542.82946098 -0.02119902 1548.74984974 -0.00878875 C1552.10893484 -0.0020524 1555.4676895 -0.00165295 1558.82678987 -0.0112383 C1562.43673691 -0.02081258 1566.04618894 -0.01199133 1569.65611291 0.00147593 C1570.68944952 -0.0056963 1571.72278613 -0.01286852 1572.78743597 -0.02025809 C1583.20524623 0.05907709 1592.1629428 2.5631406 1600.19253159 9.37752342 C1607.76014769 17.358219 1609.69664925 25.32629023 1609.61220932 36.08601952 C1609.06383205 52.1282589 1595.95678366 61.7636316 1585.32775497 72.39620018 C1584.014964 73.71301178 1582.70238263 75.03003236 1581.38999188 76.34724283 C1577.7960583 79.95307974 1574.19902439 83.55580963 1570.60142612 87.15798974 C1566.71678275 91.04861258 1562.83495532 94.94204347 1558.95267868 98.83502769 C1549.58563072 108.22653937 1540.21368713 117.61315801 1530.84086245 126.99890399 C1528.19245286 129.6510288 1525.54417225 132.30328233 1522.89593744 134.95558167 C1506.43790863 151.43884148 1489.97829438 167.92051645 1473.51386452 184.39738274 C1469.70490686 188.20926136 1465.89597254 192.0211633 1462.08706284 195.83308983 C1461.61388809 196.30663548 1461.14071334 196.78018114 1460.65319997 197.26807667 C1445.31070248 212.62273057 1429.97763127 227.98675343 1414.64991378 243.35616041 C1398.42695098 259.62316676 1382.19481241 275.88097363 1365.95250237 292.12866545 C1357.10552518 300.97905374 1348.26274812 309.83355159 1339.43056488 318.69870567 C1331.91083939 326.24645752 1324.38263618 333.78562247 1316.84329371 341.31378138 C1312.99940218 345.15249386 1309.15963016 348.99509729 1305.33075142 352.84878922 C1301.82036144 356.38173748 1298.29845956 359.90278194 1294.76733448 363.41500229 C1293.49713969 364.68240645 1292.23109492 365.95398759 1290.96985064 367.23029906 C1278.87674795 379.45889884 1264.83545622 390.54693119 1246.82627771 391.50316438 C1245.99994843 391.50346827 1245.17361916 391.50377216 1244.32224961 391.50408526 C1243.36027136 391.50686058 1242.3982931 391.50963589 1241.407164 391.51249531 C1240.3554183 391.51045897 1239.3036726 391.50842263 1238.22005582 391.50632459 C1237.09258891 391.5080996 1235.96512201 391.50987461 1234.80348943 391.51170341 C1230.99056821 391.51646909 1227.17768439 391.51406419 1223.36476135 391.5117445 C1220.60568481 391.51314184 1217.8466103 391.51604388 1215.0875349 391.51887247 C1209.05176395 391.52425236 1203.01600079 391.52588874 1196.98022762 391.52512173 C1187.94437703 391.52398774 1178.90853554 391.5285628 1169.872687 391.53425257 C1154.47477918 391.54377165 1139.07687318 391.54847293 1123.67896271 391.5505619 C1108.06827407 391.55268906 1092.45758824 391.55694569 1076.84690094 391.56380463 C1075.86199741 391.56423524 1074.87709387 391.56466585 1073.86234478 391.56510952 C1069.85117379 391.56686783 1065.8400028 391.56863747 1061.82883182 391.57042254 C1013.17916203 391.59203071 964.52949168 391.60290216 915.87981818 391.61189878 C900.10721942 391.6148319 884.33462081 391.61820166 868.56202221 391.62186599 C866.89341782 391.62225342 866.89341782 391.62225342 865.19110426 391.62264869 C860.69090078 391.62369489 856.19069731 391.62474331 851.69049383 391.62579451 C774.71740507 391.64375892 697.74431608 391.65913925 620.77122552 391.66655354 C614.72419785 391.66713752 608.67717017 391.66773478 602.6301425 391.66833116 C601.43058878 391.66844928 600.23103506 391.6685674 598.99513123 391.6686891 C586.841704 391.6698865 574.68827678 391.67109526 562.53484956 391.67232163 C560.0980276 391.67256686 557.66120565 391.67281072 555.22438369 391.6730532 C476.94045433 391.68084514 398.65653995 391.70323361 320.37261714 391.73572963 C264.12967067 391.75906847 207.88672717 391.78062368 151.64377594 391.78773594 C149.90957889 391.78795647 149.90957889 391.78795647 148.14034755 391.78818146 C122.7630517 391.79136595 97.38575588 391.79341707 72.00845986 391.794409 C61.79825897 391.79482376 51.58805809 391.79537866 41.37785721 391.79597092 C40.26039358 391.79603159 39.14292995 391.79609225 37.99160378 391.79615476 C1.96623193 391.79817239 -34.05912225 391.81242279 -70.08448794 391.83291592 C-106.35966288 391.85347804 -142.63481738 391.86140075 -178.90999757 391.85183816 C-183.91874286 391.85051963 -188.92748818 391.84934161 -193.93623352 391.84824753 C-194.9181171 391.84802768 -195.90000068 391.84780783 -196.91163831 391.84758132 C-212.48100578 391.84446273 -228.05033426 391.85481003 -243.61969269 391.87072308 C-258.91614468 391.88607951 -274.21254254 391.8872531 -289.50899639 391.87317484 C-298.48513729 391.86534359 -307.46111317 391.86853694 -316.43723772 391.887812 C-322.39268325 391.89951411 -328.34800774 391.89680433 -334.30344663 391.88219736 C-337.68338314 391.87431611 -341.06273134 391.87491912 -344.44268793 391.8888164 C-348.0732911 391.90277875 -351.70302377 391.89224697 -355.33359599 391.87546808 C-356.37577872 391.88538545 -357.41796145 391.89530282 -358.49172548 391.90552072 C-368.05529404 391.8118624 -375.02948538 388.79493397 -382.01840591 382.30721092 C-389.96972935 373.73089263 -391.46534408 365.12465517 -391.17465591 353.83455467 C-390.2569962 338.23108547 -374.29819085 326.71940976 -363.90977859 316.33939171 C-362.61786912 315.04489344 -361.32617273 313.75018247 -360.03466934 312.45527905 C-356.50785576 308.92045353 -352.97796348 305.3887169 -349.44751251 301.85752475 C-345.63177757 298.03992923 -341.81889092 294.2194906 -338.00558853 290.39946556 C-329.67997147 282.06030924 -321.35061648 273.72489327 -313.02043271 265.39029908 C-307.81641834 260.18351661 -302.61313948 254.97599955 -297.40999031 249.76835251 C-282.99377661 235.33995532 -268.5766232 220.91249857 -254.15601063 206.48849773 C-252.77371471 205.10587246 -252.77371471 205.10587246 -251.36349362 203.69531537 C-250.43982239 202.77142587 -249.51615116 201.84753636 -248.5644899 200.89565021 C-246.69292585 199.0236427 -244.82136335 197.15163364 -242.9498024 195.27962303 C-242.02145259 194.3510518 -241.09310279 193.42248056 -240.13662117 192.4657708 C-225.0811628 177.40636105 -210.03247948 162.34020921 -194.98668409 147.2711452 C-179.52663489 131.78738028 -164.06096395 116.30924922 -148.58963531 100.8367545 C-139.90807353 92.15427645 -131.22893981 83.46940187 -122.55600548 74.77830505 C-115.17489551 67.38179165 -107.7886626 59.99044248 -100.39571876 52.60575644 C-96.62563601 48.83957833 -92.85800676 45.07102988 -89.09690285 41.29588318 C-85.65091468 37.83714661 -82.19801738 34.38546475 -78.73959326 30.9391643 C-77.4927936 29.69431989 -76.2485007 28.44695836 -75.00705142 27.1967781 C-66.69294624 18.82793549 -58.39455671 11.16937733 -47.55746841 6.12752342 C-46.60356216 5.66861717 -45.64965591 5.20971092 -44.66684341 4.73689842 C-30.17595704 -0.76362854 -15.24586909 -0.04367095 0 0 Z " fill="#A259E6" transform="translate(390.80746841430664,1392.6224765777588)"/>
<path d="M0 0 C0.96197825 -0.00277531 1.9239565 -0.00555063 2.91508561 -0.00841005 C3.96683131 -0.00637371 5.01857701 -0.00433737 6.10219379 -0.00223933 C7.22966069 -0.00401434 8.3571276 -0.00578935 9.51876017 -0.00761814 C13.3316814 -0.01238383 17.14456521 -0.00997893 20.95748825 -0.00765924 C23.7165648 -0.00905658 26.4756393 -0.01195862 29.2347147 -0.01478721 C35.27048565 -0.0201671 41.30624882 -0.02180348 47.34202199 -0.02103646 C56.37787257 -0.01990248 65.41371406 -0.02447754 74.44956261 -0.0301673 C89.84747043 -0.03968639 105.24537643 -0.04438767 120.6432869 -0.04647664 C136.25397554 -0.0486038 151.86466137 -0.05286043 167.47534867 -0.05971937 C168.4602522 -0.06014998 169.44515573 -0.06058059 170.45990483 -0.06102426 C174.47107582 -0.06278257 178.4822468 -0.06455221 182.49341778 -0.06633728 C231.14308758 -0.08794545 279.79275793 -0.0988169 328.44243143 -0.10781351 C344.21503018 -0.11074663 359.9876288 -0.1141164 375.7602274 -0.11778073 C376.87263032 -0.11803902 377.98503324 -0.11829731 379.13114535 -0.11856343 C383.63134882 -0.11960962 388.1315523 -0.12065805 392.63175577 -0.12170925 C469.60484454 -0.13967365 546.57793352 -0.15505399 623.55102408 -0.16246828 C629.59805176 -0.16305226 635.64507944 -0.16364952 641.69210711 -0.1642459 C642.89166083 -0.16436402 644.09121455 -0.16448214 645.32711838 -0.16460384 C657.4805456 -0.16580124 669.63397282 -0.16701 681.78740004 -0.16823637 C684.224222 -0.1684816 686.66104396 -0.16872546 689.09786592 -0.16896794 C767.38179528 -0.17675988 845.66570966 -0.19914835 923.94963247 -0.23164436 C980.19257894 -0.2549832 1036.43552244 -0.27653842 1092.67847367 -0.28365068 C1094.41267072 -0.28387121 1094.41267072 -0.28387121 1096.18190206 -0.2840962 C1121.5591979 -0.28728068 1146.93649372 -0.28933181 1172.31378975 -0.29032374 C1182.52399064 -0.2907385 1192.73419152 -0.2912934 1202.9443924 -0.29188566 C1204.06185603 -0.29194632 1205.17931966 -0.29200699 1206.33064582 -0.2920695 C1242.35601767 -0.29408713 1278.38137186 -0.30833753 1314.40673755 -0.32883066 C1350.68191249 -0.34939277 1386.95706699 -0.35731549 1423.23224718 -0.34775289 C1428.24099247 -0.34643437 1433.24973778 -0.34525635 1438.25848313 -0.34416227 C1439.24036671 -0.34394242 1440.22225029 -0.34372257 1441.23388792 -0.34349606 C1456.80325539 -0.34037747 1472.37258386 -0.35072477 1487.94194229 -0.36663782 C1503.23839428 -0.38199424 1518.53479215 -0.38316784 1533.83124599 -0.36908958 C1542.8073869 -0.36125833 1551.78336278 -0.36445168 1560.75948732 -0.38372674 C1566.71493285 -0.39542885 1572.67025735 -0.39271907 1578.62569623 -0.3781121 C1582.00563275 -0.37023084 1585.38498095 -0.37083386 1588.76493753 -0.38473114 C1592.3955407 -0.39869349 1596.02527338 -0.38816171 1599.6558456 -0.37138281 C1600.69802833 -0.38130019 1601.74021106 -0.39121756 1602.81397508 -0.40143546 C1612.37754365 -0.30777714 1619.35173498 2.70915129 1626.34065552 9.19687434 C1634.29197896 17.77319263 1635.78759369 26.37943009 1635.49690552 37.66953059 C1634.57924581 53.27299979 1618.62044046 64.7846755 1608.2320282 75.16469355 C1606.94011872 76.45919183 1605.64842234 77.75390279 1604.35691895 79.04880621 C1600.83010536 82.58363173 1597.30021308 86.11536836 1593.76976211 89.64656051 C1589.95402718 93.46415603 1586.14114053 97.28459466 1582.32783814 101.1046197 C1574.00222108 109.44377602 1565.67286609 117.77919199 1557.34268232 126.11378618 C1552.13866795 131.32056865 1546.93538909 136.52808571 1541.73223992 141.73573275 C1527.31602622 156.16412995 1512.89887281 170.59158669 1498.47826023 185.01558753 C1497.55672962 185.93733771 1496.63519901 186.85908789 1495.68574322 187.80876989 C1494.762072 188.73265939 1493.83840077 189.6565489 1492.88673951 190.60843505 C1491.01517546 192.48044256 1489.14361296 194.35245162 1487.272052 196.22446223 C1485.8795273 197.61731908 1485.8795273 197.61731908 1484.45887078 199.03831446 C1469.40341241 214.09772421 1454.35472909 229.16387605 1439.3089337 244.23294006 C1423.8488845 259.71670498 1408.38321356 275.19483604 1392.91188492 290.66733076 C1384.23032313 299.34980881 1375.55118941 308.0346834 1366.87825508 316.72578021 C1359.49714512 324.12229362 1352.1109122 331.51364278 1344.71796837 338.89832882 C1340.94788561 342.66450693 1337.18025637 346.43305538 1333.41915245 350.20820208 C1329.97316428 353.66693865 1326.52026698 357.11862051 1323.06184287 360.56492096 C1321.8150432 361.80976537 1320.57075031 363.05712691 1319.32930102 364.30730717 C1311.01519585 372.67614978 1302.71680631 380.33470793 1291.87971802 385.37656184 C1290.92581177 385.83546809 1289.97190552 386.29437434 1288.98909302 386.76718684 C1274.49820665 392.2677138 1259.5681187 391.54775621 1244.32224961 391.50408526 C1241.56662405 391.50554908 1238.8110123 391.51153815 1236.05539282 391.51729836 C1230.05516277 391.52744688 1224.05501457 391.5265058 1218.05478279 391.51824773 C1209.07228283 391.50594112 1200.08984894 391.51100848 1191.10734744 391.51939565 C1175.79680969 391.53318361 1160.48630185 391.5327515 1145.17576142 391.52455302 C1129.66237583 391.51629653 1114.14900994 391.51456042 1098.63562317 391.52076503 C1097.16535054 391.5213463 1097.16535054 391.5213463 1095.66537542 391.52193932 C1091.67319518 391.52353915 1087.68101496 391.52518527 1083.68883476 391.52689015 C1046.51258805 391.54275523 1009.33635453 391.54383561 972.1601059 391.53544779 C971.05869027 391.53519941 969.95727465 391.53495102 968.82248279 391.53469511 C967.71930726 391.53444632 966.61613174 391.53419753 965.47952665 391.5339412 C931.88040112 391.52637384 898.28128105 391.52441647 864.68215485 391.52800914 C862.43282958 391.52824157 860.1835043 391.52847304 857.93417903 391.52870355 C848.89527858 391.52963493 839.85637813 391.53059093 830.81747768 391.53158284 C805.54988553 391.53433393 780.28229336 391.53604568 755.01470108 391.53694125 C753.28873599 391.53700265 753.28873599 391.53700265 751.52790292 391.5370653 C714.86076904 391.53829322 678.19363705 391.53491197 641.52650376 391.52839251 C640.33714301 391.52818177 639.14778226 391.52797102 637.92238027 391.52775389 C618.60748301 391.52431897 599.29258578 391.52066062 579.97768856 391.51698336 C503.36071655 391.50241224 426.74376027 391.50309216 350.12678833 391.51767512 C330.81691159 391.52133862 311.50703484 391.52497174 292.19715805 391.52839251 C290.4137492 391.52870953 290.4137492 391.52870953 288.59431189 391.52903295 C251.96206181 391.53550008 215.32981304 391.5382446 178.69756241 391.53694125 C177.54781612 391.5369005 176.39806983 391.53685974 175.21348275 391.53681776 C149.97649927 391.53588038 124.73951592 391.53397959 99.50253258 391.53120974 C90.47293782 391.53022229 81.44334305 391.52928305 72.41374828 391.52835761 C70.16737606 391.52812544 67.92100384 391.52788925 65.67463162 391.52764902 C32.0806773 391.52406632 -1.51327088 391.52712126 -35.10722444 391.53469511 C-36.20897125 391.5349435 -37.31071806 391.53519188 -38.44585113 391.53544779 C-39.54556971 391.53569584 -40.64528828 391.53594389 -41.77833166 391.53619945 C-78.84205289 391.54446795 -115.90575829 391.54144277 -152.96947725 391.52560556 C-156.94691528 391.52394845 -160.92435332 391.52233835 -164.90179138 391.52076503 C-166.36601422 391.52017909 -166.36601422 391.52017909 -167.85981733 391.51958133 C-183.33513785 391.51365722 -198.81043873 391.51779124 -214.28575748 391.52607204 C-229.49129723 391.5339953 -244.69680372 391.53124525 -259.90233923 391.51702978 C-268.82375382 391.509008 -277.74507739 391.50921859 -286.66648768 391.52147457 C-292.58688506 391.52879072 -298.50721138 391.52528428 -304.42760014 391.51287401 C-307.78668524 391.50613766 -311.14543989 391.50573821 -314.50454026 391.51532356 C-318.11448731 391.52489784 -321.72393934 391.51607659 -325.3338633 391.50260933 C-326.36719991 391.50978156 -327.40053652 391.51695378 -328.46518637 391.52434335 C-338.88299662 391.44500817 -347.84069319 388.94094466 -355.87028198 382.12656184 C-363.43789808 374.14586626 -365.37439964 366.17779503 -365.28995971 355.41806575 C-364.74167383 339.3785 -351.63692014 329.74207957 -341.01223449 319.10788508 C-339.70015823 317.79107137 -338.38828949 316.47405085 -337.07660948 315.15684243 C-333.48460921 311.55100404 -329.88950844 307.94827118 -326.29383557 304.34609552 C-323.20703125 301.25289848 -320.12206801 298.15786852 -317.0371205 295.0628198 C-306.88006317 284.87252578 -296.71717878 274.68805386 -286.55268182 264.50518127 C-283.90532309 261.85302316 -281.25805614 259.20077346 -278.61080937 256.5485036 C-262.15809651 240.06482613 -245.70323887 223.58329151 -229.24342708 207.10670253 C-225.43549721 203.29483592 -221.62760499 199.48293172 -217.81974487 195.67099543 C-217.34670088 195.19744978 -216.87365689 194.72390412 -216.38627824 194.2360086 C-201.04940058 178.88271308 -185.72358574 163.51843447 -170.40396139 148.14792485 C-154.1888236 131.87902602 -137.96264803 115.62119797 -121.72434126 99.37541981 C-112.87991851 90.52633905 -104.04058703 81.67229919 -95.21404533 72.80537959 C-87.69876566 65.25576102 -80.17333672 57.71644778 -72.63454548 50.19030388 C-68.79126615 46.35284122 -64.95295299 42.51074233 -61.12770729 38.65529605 C-57.62002584 35.12014874 -54.09855238 31.59935621 -50.56598376 28.08908297 C-49.29624258 26.82255035 -48.0314709 25.5510098 -46.77248422 24.27378621 C-34.33160167 11.66381387 -18.55278511 0.00682294 0 0 Z " fill="#42BBBE" transform="translate(364.87028197944164,215.8734381608665)"/>
</svg>
